<svg xmlns="http://www.w3.org/2000/svg" xmlns:xlink="http://www.w3.org/1999/xlink" width="1200" zoomAndPan="magnify" viewBox="0 0 900 899.99999" height="1200" preserveAspectRatio="xMidYMid meet" version="1.0"><defs><g/><clipPath id="0a750afc34"><path d="M 270 808.75 L 597.746094 808.75 L 597.746094 900 L 270 900 Z M 270 808.75 " clip-rule="nonzero"/></clipPath><clipPath id="ddfeb12fe5"><path d="M 0 0 L 237.917969 0 L 237.917969 549.753906 L 0 549.753906 Z M 0 0 " clip-rule="nonzero"/></clipPath><clipPath id="a892c4239f"><path d="M 0 838.808594 L 86.402344 838.808594 L 86.402344 900 L 0 900 Z M 0 838.808594 " clip-rule="nonzero"/></clipPath><clipPath id="5f3fd75135"><path d="M 0 0 L 119 0 L 119 328.34375 L 0 328.34375 Z M 0 0 " clip-rule="nonzero"/></clipPath><clipPath id="ba28b2beb9"><path d="M 312.867188 61.5 L 473.691406 61.5 L 473.691406 116.714844 L 312.867188 116.714844 Z M 312.867188 61.5 " clip-rule="nonzero"/></clipPath></defs><rect x="-90" width="1080" fill="#ffffff" y="-89.999999" height="1079.999988" fill-opacity="1"/><rect x="-90" width="1080" fill="#f8f9f0" y="-89.999999" height="1079.999988" fill-opacity="1"/><g clip-path="url(#0a750afc34)"><path fill="#f2efeb" d="M 369.851562 821.328125 C 350.375 829.511719 332.859375 841.300781 317.800781 856.359375 C 302.742188 871.417969 290.957031 888.933594 282.769531 908.410156 C 274.257812 928.707031 270.003906 950.152344 270.003906 972.25 L 318.617188 972.25 C 318.617188 941.476562 330.566406 912.503906 352.339844 890.894531 C 373.945312 869.125 402.917969 857.175781 433.691406 857.175781 C 464.464844 857.175781 493.4375 869.125 515.042969 890.894531 C 536.8125 912.503906 548.761719 941.476562 548.761719 972.25 L 597.378906 972.25 C 597.378906 950.152344 593.121094 928.707031 584.445312 908.574219 C 576.261719 889.09375 564.476562 871.582031 549.417969 856.523438 C 534.359375 841.460938 516.84375 829.675781 497.367188 821.492188 C 477.230469 812.980469 455.789062 808.5625 433.691406 808.5625 C 411.59375 808.5625 390.148438 812.816406 369.851562 821.328125 Z M 369.851562 821.328125 " fill-opacity="1" fill-rule="nonzero"/></g><g clip-path="url(#ddfeb12fe5)"><path fill="#f2efeb" d="M 215.113281 148.957031 C 200.691406 114.632812 179.921875 83.769531 153.386719 57.230469 C 126.847656 30.695312 95.984375 9.925781 61.660156 -4.496094 C 25.894531 -19.496094 -11.894531 -26.996094 -50.832031 -26.996094 L -50.832031 58.675781 C 3.394531 58.675781 54.449219 79.730469 92.523438 118.09375 C 130.886719 156.167969 151.945312 207.222656 151.945312 261.449219 C 151.945312 315.679688 130.886719 366.734375 92.523438 404.808594 C 54.449219 443.171875 3.394531 464.226562 -50.832031 464.226562 L -50.832031 549.894531 C -11.894531 549.894531 25.894531 542.398438 61.371094 527.109375 C 95.695312 512.6875 126.558594 491.917969 153.097656 465.382812 C 179.632812 438.84375 200.402344 407.980469 214.824219 373.65625 C 229.824219 338.175781 237.613281 300.390625 237.613281 261.449219 C 237.613281 222.511719 230.113281 184.722656 215.113281 148.957031 Z M 215.113281 148.957031 " fill-opacity="1" fill-rule="nonzero"/></g><g clip-path="url(#a892c4239f)"><path fill="#010101" d="M -28.738281 918.308594 L -23.824219 918.308594 L -23.824219 913.398438 L -28.738281 913.398438 Z M -28.6875 894.125 L -23.773438 894.125 L -23.773438 889.214844 L -28.6875 889.214844 Z M -50.703125 894.125 L -45.789062 894.125 L -45.789062 889.214844 L -50.703125 889.214844 Z M -6.722656 918.308594 L -1.808594 918.308594 L -1.808594 913.398438 L -6.722656 913.398438 Z M -28.6875 843.71875 L -23.773438 843.71875 L -23.773438 838.808594 L -28.6875 838.808594 Z M -1.753906 863.515625 L -6.671875 863.515625 L -6.671875 868.425781 L -1.753906 868.425781 Z M 42.28125 863.515625 L 37.363281 863.515625 L 37.363281 868.425781 L 42.28125 868.425781 Z M 64.246094 863.515625 L 59.328125 863.515625 L 59.328125 868.425781 L 64.246094 868.425781 Z M -6.671875 894.125 L -1.753906 894.125 L -1.753906 889.214844 L -6.671875 889.214844 Z M -23.773438 863.515625 L -28.738281 863.515625 L -28.738281 868.425781 L -23.824219 868.425781 L -23.824219 863.515625 Z M 20.261719 863.515625 L 15.347656 863.515625 L 15.347656 868.425781 L 20.261719 868.425781 Z M -50.703125 843.71875 L -45.789062 843.71875 L -45.789062 838.808594 L -50.703125 838.808594 Z M 59.382812 843.71875 L 64.296875 843.71875 L 64.296875 838.808594 L 59.382812 838.808594 Z M 59.382812 894.125 L 64.296875 894.125 L 64.296875 889.214844 L 59.382812 889.214844 Z M 59.328125 918.308594 L 64.246094 918.308594 L 64.246094 913.398438 L 59.328125 913.398438 Z M 81.347656 863.515625 L 81.347656 868.425781 L 86.261719 868.425781 L 86.261719 863.515625 Z M -6.671875 843.71875 L -1.753906 843.71875 L -1.753906 838.808594 L -6.671875 838.808594 Z M 81.347656 918.308594 L 86.261719 918.308594 L 86.261719 913.398438 L 81.347656 913.398438 Z M 37.363281 843.71875 L 42.28125 843.71875 L 42.28125 838.808594 L 37.363281 838.808594 Z M 15.347656 894.125 L 20.261719 894.125 L 20.261719 889.214844 L 15.347656 889.214844 Z M 15.292969 918.308594 L 20.210938 918.308594 L 20.210938 913.398438 L 15.292969 913.398438 Z M 37.363281 894.125 L 42.28125 894.125 L 42.28125 889.214844 L 37.363281 889.214844 Z M 15.347656 843.71875 L 20.261719 843.71875 L 20.261719 838.808594 L 15.347656 838.808594 Z M 37.3125 918.308594 L 42.226562 918.308594 L 42.226562 913.398438 L 37.3125 913.398438 Z M 37.3125 918.308594 " fill-opacity="1" fill-rule="nonzero"/></g><g clip-path="url(#5f3fd75135)"><path fill="#babbbf" d="M 112.507812 -27.96875 L 100.222656 -20.933594 C 96.15625 -18.558594 91.980469 -16.328125 87.628906 -14.242188 C 79.027344 -10.070312 70.140625 -6.164062 62.546875 -0.765625 C 58.738281 1.855469 55.402344 4.988281 52.542969 8.625 L 51.5 9.992188 L 50.582031 11.449219 L 49.683594 12.90625 L 48.910156 14.453125 C 48.675781 14.976562 48.390625 15.480469 48.171875 16.019531 L 47.542969 17.636719 C 47.09375 18.699219 46.824219 19.867188 46.464844 21.003906 C 45.300781 25.730469 44.699219 30.527344 44.664062 35.394531 C 44.503906 40.394531 44.664062 45.46875 44.664062 50.507812 C 44.746094 55.464844 44.503906 60.40625 43.945312 65.332031 C 43.378906 70.101562 42.535156 74.820312 41.40625 79.492188 C 39.285156 88.578125 36.046875 97.25 31.691406 105.503906 C 27.445312 113.617188 22.046875 120.875 15.5 127.273438 C 8.726562 133.867188 0.972656 138.972656 -7.761719 142.585938 C -17.359375 146.511719 -27.34375 148.460938 -37.714844 148.433594 C -43.355469 148.398438 -48.949219 147.894531 -54.5 146.921875 C -60.203125 145.984375 -65.945312 144.78125 -71.703125 143.324219 C -83.214844 140.589844 -94.765625 137.222656 -106.332031 134.023438 C -112.109375 132.421875 -117.882812 130.875 -123.660156 129.453125 C -124.34375 129.273438 -125.027344 129.128906 -125.691406 128.964844 C -125.835938 128.964844 -125.980469 128.964844 -126.125 128.839844 C -127.761719 128.355469 -129.398438 127.90625 -131.019531 127.472656 C -132.636719 127.039062 -134.128906 126.484375 -135.695312 126.015625 C -140.210938 124.355469 -144.816406 123.007812 -149.511719 121.96875 C -151.023438 121.660156 -152.554688 121.375 -154.046875 121.175781 C -154.800781 121.066406 -155.558594 120.996094 -156.296875 120.925781 C -157.03125 120.851562 -157.769531 120.925781 -158.507812 120.816406 C -159.953125 120.726562 -161.398438 120.726562 -162.84375 120.816406 C -163.546875 120.816406 -164.230469 121.015625 -164.914062 121.105469 C -165.253906 121.105469 -165.597656 121.195312 -165.9375 121.265625 L -166.910156 121.5 C -169.457031 122.074219 -171.820312 123.078125 -174 124.523438 C -176.058594 125.863281 -177.808594 127.53125 -179.25 129.523438 C -182.167969 133.675781 -183.957031 138.269531 -184.613281 143.304688 C -185.042969 145.804688 -185.0625 148.433594 -185.242188 151.058594 C -185.242188 152.390625 -185.242188 153.738281 -185.152344 155.070312 L -185.152344 157.085938 L -184.863281 159.117188 C -184.703125 160.484375 -184.578125 161.855469 -184.398438 163.222656 L -183.660156 167.359375 C -183.460938 168.746094 -183.082031 170.128906 -182.757812 171.53125 L -182.257812 173.621094 C -182.09375 174.304688 -181.933594 175.003906 -181.714844 175.707031 L -180.492188 179.898438 C -180.097656 181.285156 -179.574219 182.6875 -179.109375 184.089844 C -178.226562 186.878906 -177.09375 189.667969 -176.050781 192.472656 C -173.132812 199.867188 -169.804688 207.226562 -166.371094 214.566406 C -165.199219 218.433594 -164.03125 222.304688 -162.914062 226.171875 C -162.125 228.816406 -161.386719 231.460938 -160.648438 234.125 C -159.910156 236.785156 -159.226562 239.394531 -158.597656 242.039062 C -157.265625 247.328125 -156.0625 252.601562 -155 257.855469 C -150.519531 278.902344 -147.390625 299.753906 -144.707031 320.535156 C -144.367188 323.144531 -144.0625 325.734375 -143.753906 328.34375 L -143.234375 328.34375 L -144.167969 320.625 C -146.832031 299.863281 -149.945312 278.992188 -154.386719 257.925781 C -155.503906 252.652344 -156.707031 247.382812 -157.984375 242.09375 C -158.617188 239.449219 -159.335938 236.804688 -160.035156 234.160156 C -160.738281 231.515625 -161.496094 228.851562 -162.285156 226.207031 L -163.527344 222.035156 L -162.035156 226.136719 C -160.089844 231.507812 -158.25 236.90625 -156.511719 242.328125 C -154.710938 247.726562 -153.21875 253.121094 -151.707031 258.519531 C -145.949219 279.617188 -141.375 300.964844 -137.980469 322.566406 L -137.082031 328.34375 L -136.578125 328.34375 L -137.441406 322.65625 C -140.796875 301.015625 -145.335938 279.625 -151.058594 258.484375 C -152.570312 253.085938 -154.152344 247.6875 -155.863281 242.292969 C -157.574219 236.894531 -159.460938 231.496094 -161.367188 226.097656 L -161.746094 225.09375 L -161.367188 225.972656 C -156.726562 236.910156 -152.371094 247.867188 -148.773438 258.824219 C -141.539062 280.273438 -135.789062 302.117188 -131.519531 324.347656 L -130.765625 328.34375 L -130.261719 328.34375 L -130.980469 324.421875 C -135.257812 302.171875 -141.007812 280.3125 -148.234375 258.84375 C -151.671875 248.679688 -155.59375 238.496094 -159.839844 228.347656 C -157.609375 233.042969 -155.394531 237.722656 -153.328125 242.417969 L -149.726562 250.746094 L -146.308594 259.09375 C -137.609375 280.835938 -130.605469 303.105469 -125.296875 325.914062 L -124.738281 328.34375 L -124.234375 328.34375 C -124.398438 327.550781 -124.558594 326.757812 -124.773438 325.96875 C -130.03125 303.136719 -136.996094 280.839844 -145.664062 259.078125 L -149.0625 250.710938 L -152.660156 242.363281 C -155.199219 236.804688 -157.84375 231.191406 -160.46875 225.792969 L -164.300781 217.714844 L -165.648438 214.496094 L -166.441406 212.320312 C -168.242188 206.363281 -169.894531 200.425781 -171.300781 194.507812 C -171.984375 191.878906 -172.488281 189.253906 -173.097656 186.628906 C -173.710938 184 -174.070312 181.390625 -174.359375 178.800781 C -174.644531 176.210938 -174.914062 173.65625 -175.132812 171.082031 C -175.132812 169.824219 -175.132812 168.5625 -175.238281 167.304688 C -175.238281 166.675781 -175.238281 166.027344 -175.238281 165.503906 L -175.238281 161.90625 C -175.234375 161.304688 -175.191406 160.707031 -175.113281 160.109375 L -174.71875 156.511719 C -174.660156 155.90625 -174.566406 155.304688 -174.429688 154.710938 L -174.089844 152.910156 C -173.871094 151.742188 -173.65625 150.554688 -173.332031 149.441406 C -173.007812 148.324219 -172.667969 147.191406 -172.308594 146.09375 C -172.128906 145.535156 -171.894531 145.015625 -171.695312 144.472656 L -171.480469 143.988281 C -172.355469 146.570312 -172.953125 149.214844 -173.277344 151.921875 C -173.457031 153.175781 -173.570312 154.433594 -173.621094 155.699219 L -173.765625 157.609375 L -173.765625 163.132812 C -173.765625 163.777344 -173.765625 164.445312 -173.65625 165.109375 L -173.476562 167.105469 C -173.332031 169.734375 -172.828125 172.503906 -172.433594 175.132812 C -172.199219 176.480469 -171.894531 177.847656 -171.625 179.195312 L -171.191406 181.230469 L -170.667969 183.28125 L -169.609375 187.363281 L -168.386719 191.464844 C -167.988281 192.835938 -167.519531 194.203125 -167.054688 195.570312 C -166.585938 196.9375 -166.152344 198.304688 -165.648438 199.671875 C -161.726562 210.609375 -156.996094 221.492188 -152.335938 232.378906 C -150.015625 237.777344 -147.714844 243.171875 -145.589844 248.714844 C -143.46875 254.253906 -141.433594 259.617188 -139.546875 265.066406 C -135.730469 275.996094 -132.421875 286.890625 -129.613281 297.757812 C -126.953125 308 -124.722656 318.195312 -122.921875 328.34375 L -122.398438 328.34375 C -124.199219 318.230469 -126.417969 308.035156 -129.054688 297.757812 C -131.882812 286.875 -135.136719 275.953125 -138.914062 265.015625 C -140.8125 259.558594 -142.820312 254.097656 -144.941406 248.640625 C -147.066406 243.246094 -149.367188 237.722656 -151.6875 232.289062 C -156.332031 221.492188 -161.0625 210.519531 -164.964844 199.617188 C -165.453125 198.25 -165.882812 196.882812 -166.351562 195.515625 C -166.820312 194.148438 -167.289062 192.796875 -167.664062 191.429688 L -168.890625 187.347656 L -169.949219 183.28125 L -170.453125 181.246094 L -170.851562 179.304688 C -171.121094 177.957031 -171.425781 176.605469 -171.660156 175.257812 C -172.035156 172.59375 -172.539062 169.859375 -172.683594 167.285156 L -172.847656 165.308594 C -172.917969 164.65625 -172.953125 164.003906 -172.953125 163.347656 L -172.953125 157.554688 L -172.8125 155.753906 C -172.703125 154.496094 -172.683594 153.21875 -172.46875 152.011719 C -171.917969 147.1875 -170.40625 142.683594 -167.933594 138.5 C -166.675781 136.53125 -165.164062 134.78125 -163.402344 133.246094 C -161.523438 131.722656 -159.453125 130.523438 -157.195312 129.648438 C -154.726562 128.769531 -152.183594 128.246094 -149.566406 128.085938 C -148.875 128.046875 -148.1875 128.046875 -147.496094 128.085938 C -146.8125 128.085938 -146.128906 128.085938 -145.410156 128.085938 C -143.988281 128.085938 -142.550781 128.28125 -141.109375 128.460938 C -135.09375 129.320312 -129.207031 130.710938 -123.445312 132.636719 C -118.675781 134.183594 -113.90625 135.839844 -109.140625 137.546875 C -98.527344 142.027344 -87.894531 146.542969 -77.207031 150.753906 C -71.160156 153.109375 -65.097656 155.304688 -59.019531 157.285156 C -53.039062 159.289062 -46.960938 160.902344 -40.773438 162.125 C -34.886719 163.261719 -28.941406 163.863281 -22.945312 163.921875 C -17.308594 163.996094 -11.714844 163.554688 -6.160156 162.589844 C 4.148438 160.800781 13.742188 157.140625 22.625 151.617188 C 26.738281 149.03125 30.578125 146.09375 34.144531 142.800781 C 37.710938 139.503906 40.949219 135.910156 43.851562 132.019531 C 46.753906 128.125 49.273438 124 51.414062 119.636719 C 53.550781 115.277344 55.273438 110.761719 56.574219 106.082031 C 57.972656 101.222656 58.941406 96.28125 59.488281 91.257812 C 59.777344 88.71875 59.9375 86.113281 60.046875 83.503906 C 60.15625 80.894531 60.046875 78.105469 59.847656 75.496094 C 59.148438 64.703125 56.898438 53.566406 57.511719 43.203125 C 57.664062 38.144531 58.863281 33.347656 61.109375 28.808594 C 63.351562 24.519531 66.351562 20.84375 70.105469 17.78125 C 77.5 11.574219 86.890625 7.492188 96.027344 3.246094 C 103.707031 -0.304688 111.148438 -4.292969 118.355469 -8.71875 L 118.355469 -9.332031 C 116.375 -8.25 114.378906 -7.136719 112.363281 -6.074219 C 108.082031 -3.734375 103.640625 -1.628906 99.070312 0.332031 C 89.984375 4.304688 80.539062 7.941406 72.660156 13.445312 C 68.679688 16.09375 65.308594 19.371094 62.546875 23.269531 C 59.820312 27.324219 58.089844 31.765625 57.367188 36.601562 C 56.601562 41.691406 56.390625 46.808594 56.738281 51.945312 C 56.96875 57.183594 57.457031 62.488281 57.691406 67.726562 C 57.691406 69.039062 57.691406 70.332031 57.816406 71.628906 C 57.941406 72.925781 57.816406 74.21875 57.816406 75.496094 C 57.726562 78.050781 57.546875 80.570312 57.257812 83.054688 C 56.714844 87.957031 55.800781 92.789062 54.523438 97.554688 C 52.039062 106.734375 48.183594 115.296875 42.957031 123.246094 C 39.070312 129.226562 34.476562 134.605469 29.171875 139.371094 C 23.863281 144.140625 18.03125 148.136719 11.667969 151.363281 C 2.34375 156.054688 -7.523438 158.824219 -17.925781 159.675781 C -20.625 159.929688 -23.324219 160 -26.203125 160 C -29.082031 160 -31.871094 159.820312 -34.765625 159.496094 C -40.726562 158.863281 -46.597656 157.753906 -52.378906 156.167969 C -58.296875 154.640625 -64.234375 152.820312 -70.152344 150.769531 C -82.011719 146.8125 -93.832031 142.226562 -105.6875 137.90625 C -106.820312 137.492188 -107.972656 137.097656 -109.121094 136.683594 C -110.273438 136.269531 -111.875 135.515625 -113.261719 134.886719 C -116.335938 133.609375 -119.394531 132.347656 -122.472656 131.105469 C -118.640625 132.472656 -114.808594 133.859375 -110.976562 135.300781 C -99.101562 139.726562 -87.226562 144.292969 -75.300781 148.46875 C -69.328125 150.5 -63.335938 152.390625 -57.308594 154.007812 C -51.472656 155.738281 -45.539062 157.039062 -39.515625 157.914062 C -28.328125 159.394531 -17.25 158.796875 -6.285156 156.113281 C 3.527344 153.667969 12.523438 149.46875 20.699219 143.519531 C 28.410156 137.867188 34.890625 131.042969 40.128906 123.046875 C 45.421875 114.980469 49.285156 106.277344 51.71875 96.941406 C 52.992188 92.128906 53.894531 87.25 54.414062 82.296875 C 54.988281 77.144531 55.128906 71.980469 54.828125 66.808594 C 54.542969 61.519531 53.984375 56.191406 53.640625 50.902344 C 53.195312 45.738281 53.253906 40.582031 53.820312 35.429688 C 54.367188 30.570312 55.878906 26.03125 58.355469 21.8125 C 60.847656 17.769531 63.984375 14.308594 67.765625 11.429688 C 75.25 5.546875 84.460938 1.554688 93.421875 -2.675781 C 102.199219 -6.632812 110.132812 -11.667969 118.285156 -16.292969 L 118.285156 -16.832031 C 110.007812 -12.121094 101.984375 -7.0625 93.097656 -3.089844 C 84.207031 0.886719 74.890625 5.132812 67.351562 11.035156 C 63.542969 13.933594 60.375 17.417969 57.851562 21.488281 C 55.359375 25.742188 53.832031 30.316406 53.265625 35.214844 C 52.683594 40.390625 52.617188 45.570312 53.066406 50.757812 C 53.390625 56.066406 53.949219 61.390625 54.234375 66.664062 C 54.535156 71.8125 54.394531 76.953125 53.820312 82.082031 C 53.285156 87.007812 52.378906 91.863281 51.105469 96.652344 C 48.714844 105.976562 44.894531 114.675781 39.644531 122.742188 C 34.394531 130.671875 27.921875 137.4375 20.234375 143.035156 C 12.09375 148.933594 3.148438 153.082031 -6.609375 155.484375 C -17.46875 158.128906 -28.4375 158.710938 -39.515625 157.230469 C -45.542969 156.40625 -51.480469 155.152344 -57.328125 153.46875 C -63.28125 151.851562 -69.238281 149.871094 -75.191406 147.929688 C -87.101562 143.84375 -98.957031 139.183594 -110.851562 134.742188 C -113.207031 133.859375 -115.5625 132.941406 -117.9375 132.132812 C -114.820312 133.105469 -111.707031 134.105469 -108.601562 135.136719 C -96.871094 138.96875 -85.210938 143 -73.375 146.417969 C -67.507812 148.214844 -61.625 149.671875 -55.761719 150.96875 L -51.371094 151.886719 C -49.914062 152.136719 -48.4375 152.425781 -47 152.640625 C -45.558594 152.859375 -44.085938 153.09375 -42.644531 153.21875 L -40.488281 153.453125 C -39.765625 153.453125 -39.066406 153.453125 -38.347656 153.597656 C -27.515625 154.378906 -16.929688 153.105469 -6.59375 149.78125 C 2.714844 146.730469 11.109375 142.046875 18.59375 135.730469 C 32.988281 123.605469 42.308594 106.945312 46.96875 88.34375 C 48.144531 83.601562 49 78.804688 49.539062 73.949219 C 49.667969 72.726562 49.792969 71.484375 49.882812 70.226562 C 49.972656 68.964844 50.042969 67.726562 50.097656 66.449219 C 50.097656 63.910156 50.097656 61.335938 50.097656 58.765625 C 49.9375 53.601562 49.558594 48.382812 49.46875 43.257812 C 49.285156 38.238281 49.628906 33.253906 50.492188 28.304688 C 50.582031 27.710938 50.746094 27.136719 50.890625 26.507812 L 51.339844 24.707031 C 51.699219 23.574219 52.09375 22.460938 52.507812 21.378906 L 53.226562 19.777344 C 53.457031 19.246094 53.71875 18.730469 54.019531 18.230469 L 54.882812 16.738281 C 55.167969 16.234375 55.480469 15.75 55.820312 15.28125 C 58.507812 11.460938 61.746094 8.1875 65.535156 5.457031 C 73.074219 -0.15625 82.121094 -4.078125 90.902344 -8.289062 C 95.292969 -10.375 99.609375 -12.605469 103.710938 -15.050781 L 116.179688 -22.25 C 116.933594 -22.714844 117.671875 -23.183594 118.425781 -23.632812 L 118.425781 -24.171875 L 115.855469 -22.609375 L 103.386719 -15.410156 C 99.285156 -12.964844 94.984375 -10.753906 90.578125 -8.664062 C 81.796875 -4.472656 72.730469 -0.550781 65.136719 5.078125 C 61.320312 7.820312 58.058594 11.113281 55.351562 14.957031 C 55 15.425781 54.691406 15.917969 54.414062 16.433594 L 53.515625 17.925781 C 53.222656 18.433594 52.960938 18.953125 52.722656 19.492188 L 52.003906 21.09375 C 51.574219 22.207031 51.175781 23.324219 50.816406 24.457031 L 50.367188 26.253906 C 50.199219 26.847656 50.066406 27.445312 49.972656 28.054688 C 49.085938 33.023438 48.730469 38.03125 48.910156 43.078125 C 49 48.222656 49.359375 53.441406 49.523438 58.585938 C 49.613281 61.15625 49.613281 63.710938 49.523438 66.25 L 49.324219 70.007812 C 49.214844 71.25 49.109375 72.492188 48.964844 73.714844 C 48.417969 78.570312 47.558594 83.367188 46.390625 88.109375 C 41.714844 106.710938 32.324219 123.226562 18.074219 135.261719 C 10.617188 141.523438 2.257812 146.152344 -7.003906 149.152344 C -17.269531 152.445312 -27.777344 153.699219 -38.527344 152.910156 C -44.363281 152.472656 -50.132812 151.578125 -55.832031 150.230469 C -61.664062 148.9375 -67.527344 147.390625 -73.390625 145.679688 C -85.105469 142.261719 -96.78125 138.214844 -108.566406 134.382812 L -113.0625 132.925781 C -110.832031 133.535156 -108.601562 134.128906 -106.371094 134.722656 C -94.820312 137.90625 -83.25 141.273438 -71.703125 144.007812 C -65.925781 145.355469 -60.167969 146.5625 -54.449219 147.496094 C -48.851562 148.472656 -43.214844 148.976562 -37.535156 149.007812 C -27.082031 149.058594 -17.011719 147.117188 -7.328125 143.179688 C 1.457031 139.539062 9.25 134.398438 16.058594 127.761719 C 22.601562 121.316406 27.996094 114.023438 32.25 105.882812 C 36.585938 97.578125 39.824219 88.863281 41.964844 79.742188 C 43.078125 75.058594 43.917969 70.328125 44.484375 65.546875 C 45.027344 60.597656 45.261719 55.632812 45.1875 50.652344 C 45.1875 45.613281 44.988281 40.539062 45.1875 35.558594 C 45.214844 30.6875 45.816406 25.890625 46.984375 21.164062 C 47.28125 20.035156 47.636719 18.925781 48.046875 17.835938 L 48.660156 16.214844 C 48.875 15.675781 49.164062 15.191406 49.394531 14.667969 C 49.628906 14.148438 49.882812 13.625 50.167969 13.140625 L 51.050781 11.683594 L 51.949219 10.242188 L 52.976562 8.894531 C 55.816406 5.277344 59.128906 2.160156 62.90625 -0.460938 C 70.464844 -5.859375 79.332031 -9.746094 87.914062 -13.9375 C 92.234375 -16.023438 96.425781 -18.273438 100.507812 -20.648438 L 112.796875 -27.699219 C 114.59375 -28.796875 116.394531 -29.914062 118.300781 -31.027344 L 118.300781 -31.566406 C 116.40625 -30.308594 114.476562 -29.109375 112.507812 -27.96875 Z M 63.035156 23.519531 C 65.765625 19.640625 69.105469 16.382812 73.054688 13.75 C 80.878906 8.355469 90.289062 4.628906 99.375 0.652344 C 101.75 -0.371094 104.105469 -1.449219 106.425781 -2.566406 C 102.9375 -0.765625 99.410156 1.121094 95.632812 2.832031 C 86.476562 7.078125 77.066406 11.144531 69.617188 17.386719 C 65.859375 20.476562 62.859375 24.183594 60.621094 28.503906 C 59.757812 30.179688 59.070312 31.925781 58.554688 33.738281 C 59.40625 30.054688 60.898438 26.648438 63.035156 23.519531 Z M -70.101562 151.507812 C -64.164062 153.488281 -58.207031 155.304688 -52.253906 156.90625 C -46.429688 158.503906 -40.519531 159.613281 -34.515625 160.234375 C -31.597656 160.558594 -28.738281 160.683594 -25.894531 160.738281 C -23.054688 160.792969 -20.265625 160.738281 -17.53125 160.394531 C -12.222656 159.914062 -7.011719 158.921875 -1.894531 157.429688 C 2.953125 156.0625 7.636719 154.265625 12.15625 152.03125 C 16.480469 149.84375 20.570312 147.28125 24.425781 144.347656 C 31.984375 138.585938 38.355469 131.71875 43.53125 123.75 C 48.777344 115.714844 52.628906 107.0625 55.082031 97.789062 C 56.359375 93.003906 57.269531 88.152344 57.816406 83.234375 C 58.105469 80.730469 58.285156 78.195312 58.375 75.621094 L 58.375 71.738281 C 58.375 70.441406 58.375 69.128906 58.230469 67.816406 C 58.121094 65.621094 57.976562 63.425781 57.816406 61.210938 C 58.335938 65.90625 58.929688 70.621094 59.21875 75.246094 C 59.417969 77.925781 59.453125 80.640625 59.417969 83.195312 C 59.382812 85.75 59.148438 88.394531 58.839844 90.933594 C 58.292969 95.933594 57.320312 100.851562 55.925781 105.6875 C 54.625 110.339844 52.90625 114.832031 50.773438 119.167969 C 48.640625 123.503906 46.125 127.605469 43.230469 131.476562 C 40.339844 135.347656 37.113281 138.917969 33.558594 142.191406 C 30.003906 145.464844 26.179688 148.386719 22.085938 150.949219 C 13.25 156.4375 3.710938 160.066406 -6.539062 161.835938 C -12.050781 162.78125 -17.605469 163.21875 -23.199219 163.148438 C -29.152344 163.082031 -35.054688 162.480469 -40.902344 161.351562 C -47.046875 160.140625 -53.085938 158.53125 -59.019531 156.527344 C -65.082031 154.566406 -71.125 152.355469 -77.152344 150.015625 C -83.71875 147.460938 -90.25 144.746094 -96.78125 141.992188 C -87.910156 145.230469 -79.09375 148.539062 -70.101562 151.507812 Z M -175.417969 192.4375 C -176.445312 189.648438 -177.578125 186.878906 -178.460938 184.089844 C -178.910156 182.613281 -179.429688 181.300781 -179.84375 179.917969 L -181.050781 175.742188 C -181.265625 175.058594 -181.445312 174.355469 -181.609375 173.671875 L -182.09375 171.585938 C -182.417969 170.21875 -182.777344 168.816406 -182.992188 167.449219 L -183.714844 163.347656 C -183.875 161.980469 -184 160.628906 -184.164062 159.226562 L -184.359375 157.246094 L -184.359375 155.25 C -184.359375 153.9375 -184.46875 152.589844 -184.359375 151.273438 C -184.28125 148.703125 -184.070312 146.144531 -183.730469 143.59375 C -183.078125 138.683594 -181.324219 134.203125 -178.476562 130.152344 C -177.0625 128.207031 -175.347656 126.574219 -173.332031 125.261719 C -171.207031 123.84375 -168.898438 122.859375 -166.40625 122.308594 L -165.453125 122.074219 C -165.128906 122.074219 -164.785156 121.96875 -164.445312 121.929688 C -163.777344 121.929688 -163.113281 121.714844 -162.429688 121.644531 C -161.015625 121.570312 -159.597656 121.570312 -158.183594 121.644531 C -157.464844 121.644531 -156.746094 121.644531 -156.023438 121.75 C -155.304688 121.859375 -154.550781 121.894531 -153.8125 122.003906 C -152.320312 122.203125 -150.824219 122.488281 -149.332031 122.796875 C -147.839844 123.101562 -146.722656 123.390625 -145.410156 123.75 C -145.769531 123.75 -146.148438 123.585938 -146.507812 123.515625 C -149.40625 123.003906 -152.328125 122.746094 -155.269531 122.742188 C -155.976562 122.695312 -156.683594 122.695312 -157.390625 122.742188 C -158.074219 122.742188 -158.796875 122.742188 -159.460938 122.902344 L -161.621094 123.246094 C -162.304688 123.246094 -162.898438 123.570312 -163.546875 123.710938 C -164.773438 124.058594 -165.972656 124.492188 -167.144531 125.007812 C -168.25 125.527344 -169.3125 126.125 -170.328125 126.808594 C -171.320312 127.492188 -172.253906 128.25 -173.132812 129.074219 C -173.976562 129.910156 -174.75 130.800781 -175.457031 131.753906 C -176.171875 132.703125 -176.828125 133.691406 -177.417969 134.722656 C -177.984375 135.777344 -178.488281 136.863281 -178.925781 137.980469 C -179.84375 140.257812 -180.519531 142.601562 -180.960938 145.015625 L -181.285156 146.8125 C -181.390625 147.441406 -181.429688 148.074219 -181.5 148.613281 L -181.859375 152.410156 L -181.859375 156.3125 C -181.859375 156.960938 -181.859375 157.609375 -181.859375 158.273438 L -181.734375 160.253906 C -180.832031 171.464844 -178.433594 182.351562 -174.539062 192.90625 C -173.1875 196.757812 -171.714844 200.605469 -170.183594 204.472656 C -172.054688 200.605469 -173.816406 196.523438 -175.417969 192.4375 Z M -173.945312 193.121094 C -177.835938 182.660156 -180.234375 171.863281 -181.140625 160.738281 L -181.265625 158.757812 C -181.265625 158.113281 -181.265625 157.464844 -181.265625 156.816406 L -181.265625 152.949219 L -180.890625 149.207031 C -180.890625 148.578125 -180.890625 147.945312 -180.691406 147.40625 L -180.367188 145.609375 C -179.933594 143.222656 -179.261719 140.910156 -178.351562 138.664062 C -177.914062 137.570312 -177.414062 136.5 -176.859375 135.460938 C -176.273438 134.449219 -175.632812 133.480469 -174.933594 132.546875 C -174.230469 131.613281 -173.46875 130.734375 -172.648438 129.902344 C -171.785156 129.101562 -170.867188 128.367188 -169.894531 127.707031 C -168.898438 127.03125 -167.855469 126.429688 -166.765625 125.90625 C -165.597656 125.394531 -164.398438 124.976562 -163.167969 124.648438 C -162.539062 124.503906 -161.945312 124.269531 -161.277344 124.179688 L -159.316406 123.855469 C -158.667969 123.75 -157.96875 123.75 -157.300781 123.695312 C -156.613281 123.648438 -155.921875 123.648438 -155.234375 123.695312 C -152.332031 123.699219 -149.453125 123.957031 -146.597656 124.46875 C -144.671875 124.792969 -142.746094 125.222656 -140.824219 125.691406 C -141.832031 125.53125 -142.820312 125.351562 -143.828125 125.222656 C -145.265625 125.042969 -146.707031 124.917969 -148.144531 124.847656 C -149.566406 124.847656 -150.953125 124.847656 -152.355469 124.847656 C -153.039062 124.847656 -153.703125 124.972656 -154.386719 125.027344 L -155.394531 125.132812 C -155.726562 125.175781 -156.058594 125.238281 -156.386719 125.3125 L -158.308594 125.671875 L -160.109375 126.230469 C -162.398438 126.902344 -164.535156 127.90625 -166.515625 129.238281 C -168.496094 130.570312 -170.226562 132.171875 -171.714844 134.039062 L -172.253906 134.722656 L -172.648438 135.496094 C -172.953125 135.984375 -173.296875 136.449219 -173.585938 136.972656 C -174.125 137.996094 -174.699219 139.023438 -175.148438 140.121094 C -175.597656 141.21875 -175.996094 142.332031 -176.410156 143.449219 C -176.589844 144.007812 -176.734375 144.601562 -176.894531 145.246094 C -177.054688 145.894531 -177.21875 146.417969 -177.34375 147.046875 L -177.722656 148.847656 L -177.972656 150.644531 C -178.136719 151.867188 -178.351562 153.09375 -178.476562 154.242188 C -178.6875 156.777344 -178.773438 159.3125 -178.730469 161.855469 C -178.730469 164.410156 -178.476562 167.054688 -178.28125 169.660156 C -178.136719 170.976562 -177.921875 172.304688 -177.742188 173.636719 L -177.453125 175.617188 L -177.074219 177.632812 C -176.054688 183.101562 -174.738281 188.496094 -173.132812 193.824219 C -172.199219 196.9375 -171.191406 200.046875 -170.148438 203.179688 C -171.535156 199.777344 -172.792969 196.449219 -173.945312 193.121094 Z M -156.726562 128.101562 C -158.957031 128.902344 -161.027344 130 -162.9375 131.394531 C -164.851562 132.792969 -166.527344 134.429688 -167.972656 136.304688 C -169.398438 138.132812 -170.601562 140.101562 -171.570312 142.207031 C -171.832031 142.722656 -172.066406 143.25 -172.269531 143.789062 L -172.902344 145.429688 C -173.261719 146.542969 -173.65625 147.640625 -173.925781 148.808594 C -174.195312 149.980469 -174.449219 151.132812 -174.683594 152.410156 L -175.023438 154.207031 C -175.132812 154.800781 -175.257812 155.394531 -175.3125 156.007812 L -175.707031 159.605469 C -175.785156 160.203125 -175.824219 160.800781 -175.832031 161.402344 L -175.832031 165.003906 C -175.832031 165.632812 -175.832031 166.261719 -175.832031 166.910156 C -175.832031 168.167969 -175.832031 169.445312 -175.707031 170.722656 C -175.492188 173.296875 -175.328125 175.867188 -174.933594 178.476562 C -174.539062 181.085938 -174.105469 183.710938 -173.65625 186.339844 C -173.207031 188.964844 -172.578125 191.609375 -171.855469 194.253906 C -171.136719 196.898438 -170.632812 199.132812 -170.058594 201.578125 C -170.941406 198.933594 -171.765625 196.289062 -172.539062 193.660156 C -174.144531 188.378906 -175.453125 183.023438 -176.460938 177.597656 L -176.839844 175.617188 L -177.128906 173.636719 C -177.289062 172.324219 -177.507812 170.992188 -177.648438 169.679688 C -177.867188 167.214844 -178.152344 164.625 -178.046875 162.050781 C -177.9375 159.480469 -177.902344 156.996094 -177.777344 154.496094 C -177.648438 153.273438 -177.433594 152.066406 -177.273438 150.898438 L -177.019531 149.097656 L -176.644531 147.300781 C -176.515625 146.707031 -176.371094 146.128906 -176.210938 145.5 L -175.707031 143.789062 C -175.3125 142.691406 -174.953125 141.558594 -174.464844 140.515625 C -174.007812 139.449219 -173.492188 138.414062 -172.917969 137.402344 C -172.628906 136.898438 -172.289062 136.433594 -171.984375 135.945312 L -171.515625 135.226562 L -170.992188 134.5625 C -169.558594 132.671875 -167.871094 131.042969 -165.929688 129.679688 C -163.992188 128.316406 -161.886719 127.28125 -159.625 126.574219 L -157.824219 126.050781 L -155.917969 125.671875 C -155.609375 125.671875 -155.289062 125.546875 -154.964844 125.511719 L -153.972656 125.402344 C -153.308594 125.402344 -152.660156 125.261719 -151.976562 125.242188 C -150.59375 125.242188 -149.261719 125.242188 -147.839844 125.242188 C -146.417969 125.242188 -145.015625 125.441406 -143.574219 125.621094 C -141.074219 125.925781 -138.519531 126.410156 -135.964844 126.988281 C -137.621094 126.753906 -139.257812 126.554688 -140.875 126.410156 C -142.496094 126.265625 -143.703125 126.25 -145.070312 126.25 C -145.769531 126.25 -146.4375 126.25 -147.121094 126.25 C -147.804688 126.25 -148.488281 126.25 -149.152344 126.375 C -151.746094 126.644531 -154.273438 127.21875 -156.726562 128.101562 Z M -119.324219 133.210938 C -120.691406 132.746094 -122.058594 132.277344 -123.445312 131.828125 C -129.261719 129.890625 -135.203125 128.488281 -141.273438 127.617188 C -142.746094 127.453125 -144.203125 127.292969 -145.644531 127.238281 C -146.363281 127.238281 -147.066406 127.238281 -147.765625 127.238281 C -148.46875 127.238281 -148.972656 127.238281 -149.566406 127.238281 C -149.351562 127.238281 -149.132812 127.238281 -148.902344 127.132812 C -148.269531 127.039062 -147.585938 127.132812 -146.921875 127.023438 C -146.257812 126.914062 -145.589844 127.023438 -144.90625 127.023438 C -143.539062 127.023438 -142.152344 127.023438 -140.769531 127.203125 C -137.410156 127.5 -134.082031 127.992188 -130.785156 128.679688 C -126.957031 130.128906 -123.136719 131.640625 -119.324219 133.210938 Z M -119.324219 133.210938 " fill-opacity="1" fill-rule="nonzero"/></g><g fill="#099271" fill-opacity="1"><g transform="translate(341.571462, 848.933592)"><g><path d="M 8.46875 -15.171875 C 9.945312 -15.171875 11.265625 -14.878906 12.421875 -14.296875 C 13.585938 -13.710938 14.492188 -12.882812 15.140625 -11.8125 L 11.6875 -9.71875 C 10.945312 -10.757812 9.9375 -11.28125 8.65625 -11.28125 C 7.726562 -11.28125 6.972656 -10.929688 6.390625 -10.234375 C 5.804688 -9.535156 5.515625 -8.617188 5.515625 -7.484375 C 5.515625 -6.335938 5.800781 -5.414062 6.375 -4.71875 C 6.945312 -4.019531 7.707031 -3.671875 8.65625 -3.671875 C 10.070312 -3.671875 11.09375 -4.238281 11.71875 -5.375 L 15.234375 -3.3125 C 14.617188 -2.195312 13.722656 -1.335938 12.546875 -0.734375 C 11.367188 -0.128906 9.988281 0.171875 8.40625 0.171875 C 6.082031 0.171875 4.210938 -0.523438 2.796875 -1.921875 C 1.378906 -3.328125 0.671875 -5.175781 0.671875 -7.46875 C 0.671875 -9.769531 1.390625 -11.628906 2.828125 -13.046875 C 4.265625 -14.460938 6.144531 -15.171875 8.46875 -15.171875 Z M 8.46875 -15.171875 "/></g></g></g><g fill="#099271" fill-opacity="1"><g transform="translate(357.2197, 848.933592)"><g><path d="M 8.875 -15.171875 C 11.332031 -15.171875 13.3125 -14.46875 14.8125 -13.0625 C 16.3125 -11.664062 17.0625 -9.816406 17.0625 -7.515625 C 17.0625 -5.210938 16.3125 -3.351562 14.8125 -1.9375 C 13.3125 -0.53125 11.332031 0.171875 8.875 0.171875 C 6.40625 0.171875 4.421875 -0.53125 2.921875 -1.9375 C 1.421875 -3.351562 0.671875 -5.210938 0.671875 -7.515625 C 0.671875 -9.816406 1.421875 -11.664062 2.921875 -13.0625 C 4.421875 -14.46875 6.40625 -15.171875 8.875 -15.171875 Z M 8.875 -11.359375 C 7.875 -11.359375 7.0625 -10.992188 6.4375 -10.265625 C 5.820312 -9.546875 5.515625 -8.613281 5.515625 -7.46875 C 5.515625 -6.289062 5.820312 -5.34375 6.4375 -4.625 C 7.0625 -3.914062 7.875 -3.5625 8.875 -3.5625 C 9.863281 -3.5625 10.664062 -3.914062 11.28125 -4.625 C 11.90625 -5.34375 12.21875 -6.289062 12.21875 -7.46875 C 12.21875 -8.613281 11.90625 -9.546875 11.28125 -10.265625 C 10.664062 -10.992188 9.863281 -11.359375 8.875 -11.359375 Z M 8.875 -11.359375 "/></g></g></g><g fill="#099271" fill-opacity="1"><g transform="translate(374.956222, 848.933592)"><g><path d="M 8.65625 -15.234375 C 10.71875 -15.234375 12.316406 -14.753906 13.453125 -13.796875 C 14.597656 -12.835938 15.179688 -11.503906 15.203125 -9.796875 L 15.203125 0 L 10.5 0 L 10.5 -1.71875 C 9.507812 -0.425781 7.976562 0.21875 5.90625 0.21875 C 4.320312 0.21875 3.066406 -0.210938 2.140625 -1.078125 C 1.210938 -1.953125 0.75 -3.085938 0.75 -4.484375 C 0.75 -5.910156 1.242188 -7.019531 2.234375 -7.8125 C 3.234375 -8.601562 4.660156 -9.003906 6.515625 -9.015625 L 10.46875 -9.015625 L 10.46875 -9.25 C 10.46875 -9.988281 10.222656 -10.566406 9.734375 -10.984375 C 9.242188 -11.398438 8.515625 -11.609375 7.546875 -11.609375 C 6.191406 -11.609375 4.695312 -11.191406 3.0625 -10.359375 L 1.703125 -13.53125 C 4.128906 -14.664062 6.445312 -15.234375 8.65625 -15.234375 Z M 7.375 -3.03125 C 8.132812 -3.03125 8.800781 -3.21875 9.375 -3.59375 C 9.957031 -3.976562 10.320312 -4.476562 10.46875 -5.09375 L 10.46875 -6.4375 L 7.4375 -6.4375 C 5.988281 -6.4375 5.265625 -5.894531 5.265625 -4.8125 C 5.265625 -4.257812 5.445312 -3.820312 5.8125 -3.5 C 6.1875 -3.1875 6.707031 -3.03125 7.375 -3.03125 Z M 7.375 -3.03125 "/></g></g></g><g fill="#099271" fill-opacity="1"><g transform="translate(391.662524, 848.933592)"><g><path d="M 8.46875 -15.171875 C 9.945312 -15.171875 11.265625 -14.878906 12.421875 -14.296875 C 13.585938 -13.710938 14.492188 -12.882812 15.140625 -11.8125 L 11.6875 -9.71875 C 10.945312 -10.757812 9.9375 -11.28125 8.65625 -11.28125 C 7.726562 -11.28125 6.972656 -10.929688 6.390625 -10.234375 C 5.804688 -9.535156 5.515625 -8.617188 5.515625 -7.484375 C 5.515625 -6.335938 5.800781 -5.414062 6.375 -4.71875 C 6.945312 -4.019531 7.707031 -3.671875 8.65625 -3.671875 C 10.070312 -3.671875 11.09375 -4.238281 11.71875 -5.375 L 15.234375 -3.3125 C 14.617188 -2.195312 13.722656 -1.335938 12.546875 -0.734375 C 11.367188 -0.128906 9.988281 0.171875 8.40625 0.171875 C 6.082031 0.171875 4.210938 -0.523438 2.796875 -1.921875 C 1.378906 -3.328125 0.671875 -5.175781 0.671875 -7.46875 C 0.671875 -9.769531 1.390625 -11.628906 2.828125 -13.046875 C 4.265625 -14.460938 6.144531 -15.171875 8.46875 -15.171875 Z M 8.46875 -15.171875 "/></g></g></g><g fill="#099271" fill-opacity="1"><g transform="translate(407.310762, 848.933592)"><g><path d="M 11.921875 -15.234375 C 13.566406 -15.234375 14.890625 -14.707031 15.890625 -13.65625 C 16.898438 -12.601562 17.40625 -11.207031 17.40625 -9.46875 L 17.40625 0 L 12.578125 0 L 12.578125 -8.125 C 12.578125 -9 12.34375 -9.691406 11.875 -10.203125 C 11.40625 -10.710938 10.757812 -10.96875 9.9375 -10.96875 C 9.007812 -10.96875 8.265625 -10.632812 7.703125 -9.96875 C 7.148438 -9.300781 6.875 -8.445312 6.875 -7.40625 L 6.875 0 L 2.0625 0 L 2.0625 -20.65625 L 6.875 -20.65625 L 6.875 -12.53125 C 7.9375 -14.289062 9.617188 -15.191406 11.921875 -15.234375 Z M 11.921875 -15.234375 "/></g></g></g><g fill="#099271" fill-opacity="1"><g transform="translate(426.188877, 848.933592)"><g><path d="M 11.359375 -15.171875 C 13.472656 -15.171875 15.175781 -14.460938 16.46875 -13.046875 C 17.757812 -11.628906 18.40625 -9.757812 18.40625 -7.4375 C 18.40625 -5.15625 17.773438 -3.316406 16.515625 -1.921875 C 15.253906 -0.523438 13.570312 0.171875 11.46875 0.171875 C 9.5 0.171875 7.96875 -0.550781 6.875 -2 L 6.875 0 L 2.0625 0 L 2.0625 -20.65625 L 6.875 -20.65625 L 6.875 -13.03125 C 7.988281 -14.457031 9.484375 -15.171875 11.359375 -15.171875 Z M 10.1875 -3.640625 C 11.1875 -3.640625 12 -4.003906 12.625 -4.734375 C 13.25 -5.472656 13.5625 -6.414062 13.5625 -7.5625 C 13.5625 -8.71875 13.25 -9.65625 12.625 -10.375 C 12 -11.101562 11.1875 -11.46875 10.1875 -11.46875 C 9.226562 -11.46875 8.4375 -11.101562 7.8125 -10.375 C 7.1875 -9.65625 6.875 -8.722656 6.875 -7.578125 C 6.875 -6.398438 7.179688 -5.445312 7.796875 -4.71875 C 8.410156 -4 9.207031 -3.640625 10.1875 -3.640625 Z M 10.1875 -3.640625 "/></g></g></g><g fill="#099271" fill-opacity="1"><g transform="translate(445.261898, 848.933592)"><g><path d="M 8.875 -15.171875 C 11.332031 -15.171875 13.3125 -14.46875 14.8125 -13.0625 C 16.3125 -11.664062 17.0625 -9.816406 17.0625 -7.515625 C 17.0625 -5.210938 16.3125 -3.351562 14.8125 -1.9375 C 13.3125 -0.53125 11.332031 0.171875 8.875 0.171875 C 6.40625 0.171875 4.421875 -0.53125 2.921875 -1.9375 C 1.421875 -3.351562 0.671875 -5.210938 0.671875 -7.515625 C 0.671875 -9.816406 1.421875 -11.664062 2.921875 -13.0625 C 4.421875 -14.46875 6.40625 -15.171875 8.875 -15.171875 Z M 8.875 -11.359375 C 7.875 -11.359375 7.0625 -10.992188 6.4375 -10.265625 C 5.820312 -9.546875 5.515625 -8.613281 5.515625 -7.46875 C 5.515625 -6.289062 5.820312 -5.34375 6.4375 -4.625 C 7.0625 -3.914062 7.875 -3.5625 8.875 -3.5625 C 9.863281 -3.5625 10.664062 -3.914062 11.28125 -4.625 C 11.90625 -5.34375 12.21875 -6.289062 12.21875 -7.46875 C 12.21875 -8.613281 11.90625 -9.546875 11.28125 -10.265625 C 10.664062 -10.992188 9.863281 -11.359375 8.875 -11.359375 Z M 8.875 -11.359375 "/></g></g></g><g fill="#099271" fill-opacity="1"><g transform="translate(462.99842, 848.933592)"><g><path d="M 10.671875 -4.15625 L 11.609375 -0.8125 C 10.441406 -0.125 9.101562 0.21875 7.59375 0.21875 C 6.113281 0.21875 4.914062 -0.191406 4 -1.015625 C 3.082031 -1.835938 2.625 -3.007812 2.625 -4.53125 L 2.625 -11.171875 L 0.53125 -11.171875 L 0.53125 -14.3125 L 2.625 -14.3125 L 2.625 -18.484375 L 7.40625 -18.484375 L 7.40625 -14.34375 L 11.328125 -14.34375 L 11.328125 -11.171875 L 7.40625 -11.171875 L 7.40625 -5.296875 C 7.40625 -4.710938 7.519531 -4.285156 7.75 -4.015625 C 7.988281 -3.753906 8.335938 -3.628906 8.796875 -3.640625 C 9.242188 -3.640625 9.867188 -3.8125 10.671875 -4.15625 Z M 10.671875 -4.15625 "/></g></g></g><g fill="#099271" fill-opacity="1"><g transform="translate(475.110491, 848.933592)"><g><path d="M 7.296875 -15.234375 C 9.503906 -15.234375 11.5625 -14.664062 13.46875 -13.53125 L 11.828125 -10.40625 C 9.972656 -11.414062 8.394531 -11.921875 7.09375 -11.921875 C 6.113281 -11.921875 5.625 -11.578125 5.625 -10.890625 C 5.625 -10.515625 5.890625 -10.203125 6.421875 -9.953125 C 6.960938 -9.703125 7.625 -9.472656 8.40625 -9.265625 C 9.1875 -9.066406 9.960938 -8.8125 10.734375 -8.5 C 11.503906 -8.195312 12.15625 -7.710938 12.6875 -7.046875 C 13.226562 -6.378906 13.5 -5.5625 13.5 -4.59375 C 13.5 -3.09375 12.914062 -1.921875 11.75 -1.078125 C 10.582031 -0.234375 9.0625 0.1875 7.1875 0.1875 C 4.53125 0.1875 2.285156 -0.515625 0.453125 -1.921875 L 1.984375 -4.984375 C 3.742188 -3.742188 5.515625 -3.125 7.296875 -3.125 C 8.390625 -3.125 8.9375 -3.46875 8.9375 -4.15625 C 8.9375 -4.539062 8.671875 -4.863281 8.140625 -5.125 C 7.609375 -5.382812 6.960938 -5.613281 6.203125 -5.8125 C 5.441406 -6.019531 4.679688 -6.273438 3.921875 -6.578125 C 3.160156 -6.890625 2.515625 -7.367188 1.984375 -8.015625 C 1.460938 -8.671875 1.203125 -9.488281 1.203125 -10.46875 C 1.203125 -11.96875 1.765625 -13.132812 2.890625 -13.96875 C 4.023438 -14.8125 5.492188 -15.234375 7.296875 -15.234375 Z M 7.296875 -15.234375 "/></g></g></g><g fill="#099271" fill-opacity="1"><g transform="translate(489.394376, 848.933592)"><g><path d="M 1.703125 -3.78125 C 2.128906 -4.207031 2.6875 -4.421875 3.375 -4.421875 C 4.0625 -4.421875 4.617188 -4.207031 5.046875 -3.78125 C 5.484375 -3.351562 5.703125 -2.796875 5.703125 -2.109375 C 5.703125 -1.421875 5.484375 -0.859375 5.046875 -0.421875 C 4.617188 0.00390625 4.0625 0.21875 3.375 0.21875 C 2.6875 0.21875 2.128906 0.00390625 1.703125 -0.421875 C 1.273438 -0.859375 1.0625 -1.421875 1.0625 -2.109375 C 1.0625 -2.796875 1.273438 -3.351562 1.703125 -3.78125 Z M 1.703125 -3.78125 "/></g></g></g><g fill="#099271" fill-opacity="1"><g transform="translate(496.160432, 848.933592)"><g><path d="M 8.46875 -15.171875 C 9.945312 -15.171875 11.265625 -14.878906 12.421875 -14.296875 C 13.585938 -13.710938 14.492188 -12.882812 15.140625 -11.8125 L 11.6875 -9.71875 C 10.945312 -10.757812 9.9375 -11.28125 8.65625 -11.28125 C 7.726562 -11.28125 6.972656 -10.929688 6.390625 -10.234375 C 5.804688 -9.535156 5.515625 -8.617188 5.515625 -7.484375 C 5.515625 -6.335938 5.800781 -5.414062 6.375 -4.71875 C 6.945312 -4.019531 7.707031 -3.671875 8.65625 -3.671875 C 10.070312 -3.671875 11.09375 -4.238281 11.71875 -5.375 L 15.234375 -3.3125 C 14.617188 -2.195312 13.722656 -1.335938 12.546875 -0.734375 C 11.367188 -0.128906 9.988281 0.171875 8.40625 0.171875 C 6.082031 0.171875 4.210938 -0.523438 2.796875 -1.921875 C 1.378906 -3.328125 0.671875 -5.175781 0.671875 -7.46875 C 0.671875 -9.769531 1.390625 -11.628906 2.828125 -13.046875 C 4.265625 -14.460938 6.144531 -15.171875 8.46875 -15.171875 Z M 8.46875 -15.171875 "/></g></g></g><g fill="#099271" fill-opacity="1"><g transform="translate(511.80867, 848.933592)"><g><path d="M 8.875 -15.171875 C 11.332031 -15.171875 13.3125 -14.46875 14.8125 -13.0625 C 16.3125 -11.664062 17.0625 -9.816406 17.0625 -7.515625 C 17.0625 -5.210938 16.3125 -3.351562 14.8125 -1.9375 C 13.3125 -0.53125 11.332031 0.171875 8.875 0.171875 C 6.40625 0.171875 4.421875 -0.53125 2.921875 -1.9375 C 1.421875 -3.351562 0.671875 -5.210938 0.671875 -7.515625 C 0.671875 -9.816406 1.421875 -11.664062 2.921875 -13.0625 C 4.421875 -14.46875 6.40625 -15.171875 8.875 -15.171875 Z M 8.875 -11.359375 C 7.875 -11.359375 7.0625 -10.992188 6.4375 -10.265625 C 5.820312 -9.546875 5.515625 -8.613281 5.515625 -7.46875 C 5.515625 -6.289062 5.820312 -5.34375 6.4375 -4.625 C 7.0625 -3.914062 7.875 -3.5625 8.875 -3.5625 C 9.863281 -3.5625 10.664062 -3.914062 11.28125 -4.625 C 11.90625 -5.34375 12.21875 -6.289062 12.21875 -7.46875 C 12.21875 -8.613281 11.90625 -9.546875 11.28125 -10.265625 C 10.664062 -10.992188 9.863281 -11.359375 8.875 -11.359375 Z M 8.875 -11.359375 "/></g></g></g><g fill="#099271" fill-opacity="1"><g transform="translate(529.545192, 848.933592)"><g><path d="M 21.96875 -15.234375 C 23.625 -15.234375 24.9375 -14.707031 25.90625 -13.65625 C 26.882812 -12.601562 27.375 -11.207031 27.375 -9.46875 L 27.375 0 L 22.578125 0 L 22.578125 -8.125 C 22.578125 -9.019531 22.34375 -9.722656 21.875 -10.234375 C 21.414062 -10.742188 20.785156 -11 19.984375 -11 C 19.097656 -10.976562 18.390625 -10.640625 17.859375 -9.984375 C 17.328125 -9.328125 17.0625 -8.476562 17.0625 -7.4375 L 17.0625 0 L 12.25 0 L 12.25 -8.125 C 12.25 -9.019531 12.019531 -9.722656 11.5625 -10.234375 C 11.113281 -10.742188 10.488281 -11 9.6875 -11 C 8.78125 -10.976562 8.054688 -10.632812 7.515625 -9.96875 C 6.972656 -9.300781 6.703125 -8.457031 6.703125 -7.4375 L 6.703125 0 L 1.921875 0 L 1.921875 -15 L 6.703125 -15 L 6.703125 -12.53125 C 7.722656 -14.289062 9.378906 -15.191406 11.671875 -15.234375 C 12.867188 -15.234375 13.910156 -14.929688 14.796875 -14.328125 C 15.679688 -13.722656 16.304688 -12.890625 16.671875 -11.828125 C 17.660156 -14.054688 19.425781 -15.191406 21.96875 -15.234375 Z M 21.96875 -15.234375 "/></g></g></g><path stroke-linecap="butt" transform="matrix(0.687307, 0.00185607, -0.00185607, 0.687307, 306.720428, 55.703165)" fill="none" stroke-linejoin="miter" d="M -0.00272239 2.00051 L 416.938014 1.999882 " stroke="#00c193" stroke-width="4" stroke-opacity="1" stroke-miterlimit="4"/><path stroke-linecap="butt" transform="matrix(0.687301, 0.00352733, -0.00352733, 0.687301, 306.7199, 120.131219)" fill="none" stroke-linejoin="miter" d="M -0.00279 1.997229 L 416.958973 1.999987 " stroke="#00c193" stroke-width="4" stroke-opacity="1" stroke-miterlimit="4"/><path stroke-linecap="butt" transform="matrix(0.0042653, -0.687297, 0.687297, 0.0042653, 306.758338, 120.772007)" fill="none" stroke-linejoin="miter" d="M -0.00103716 1.999833 L 94.754262 1.997191 " stroke="#00c193" stroke-width="4" stroke-opacity="1" stroke-miterlimit="4"/><path stroke-linecap="butt" transform="matrix(0.0042653, -0.687297, 0.687297, 0.0042653, 590.084734, 122.221998)" fill="none" stroke-linejoin="miter" d="M 0.000102201 2.002343 L 94.755402 1.999701 " stroke="#00c193" stroke-width="4" stroke-opacity="1" stroke-miterlimit="4"/><g clip-path="url(#ba28b2beb9)"><path fill="#00c193" d="M 312.867188 61.5 L 473.691406 61.5 L 473.691406 116.714844 L 312.867188 116.714844 Z M 312.867188 61.5 " fill-opacity="1" fill-rule="nonzero"/></g><g fill="#ffffff" fill-opacity="1"><g transform="translate(325.735821, 101.375257)"><g><path d="M 25.1875 -16.890625 L 19.625 -16.890625 C 19.414062 -18.316406 18.804688 -19.4375 17.796875 -20.25 C 16.796875 -21.070312 15.539062 -21.484375 14.03125 -21.484375 C 12.019531 -21.484375 10.40625 -20.742188 9.1875 -19.265625 C 7.976562 -17.796875 7.375 -15.707031 7.375 -13 C 7.375 -10.21875 7.984375 -8.101562 9.203125 -6.65625 C 10.429688 -5.21875 12.03125 -4.5 14 -4.5 C 15.457031 -4.5 16.691406 -4.878906 17.703125 -5.640625 C 18.722656 -6.410156 19.363281 -7.492188 19.625 -8.890625 L 25.1875 -8.859375 C 24.988281 -7.265625 24.421875 -5.765625 23.484375 -4.359375 C 22.546875 -2.960938 21.269531 -1.828125 19.65625 -0.953125 C 18.050781 -0.078125 16.132812 0.359375 13.90625 0.359375 C 11.59375 0.359375 9.523438 -0.164062 7.703125 -1.21875 C 5.878906 -2.269531 4.4375 -3.785156 3.375 -5.765625 C 2.320312 -7.753906 1.796875 -10.164062 1.796875 -13 C 1.796875 -15.832031 2.328125 -18.238281 3.390625 -20.21875 C 4.460938 -22.207031 5.910156 -23.722656 7.734375 -24.765625 C 9.566406 -25.816406 11.625 -26.34375 13.90625 -26.34375 C 15.914062 -26.34375 17.722656 -25.972656 19.328125 -25.234375 C 20.941406 -24.492188 22.257812 -23.414062 23.28125 -22 C 24.3125 -20.59375 24.945312 -18.890625 25.1875 -16.890625 Z M 25.1875 -16.890625 "/></g></g></g><g fill="#ffffff" fill-opacity="1"><g transform="translate(352.608851, 101.375257)"><g><path d="M 26.140625 -13 C 26.140625 -10.164062 25.601562 -7.753906 24.53125 -5.765625 C 23.46875 -3.773438 22.015625 -2.253906 20.171875 -1.203125 C 18.335938 -0.160156 16.269531 0.359375 13.96875 0.359375 C 11.65625 0.359375 9.582031 -0.164062 7.75 -1.21875 C 5.914062 -2.269531 4.460938 -3.789062 3.390625 -5.78125 C 2.328125 -7.769531 1.796875 -10.175781 1.796875 -13 C 1.796875 -15.832031 2.328125 -18.238281 3.390625 -20.21875 C 4.460938 -22.207031 5.914062 -23.722656 7.75 -24.765625 C 9.582031 -25.816406 11.65625 -26.34375 13.96875 -26.34375 C 16.269531 -26.34375 18.335938 -25.816406 20.171875 -24.765625 C 22.015625 -23.722656 23.46875 -22.207031 24.53125 -20.21875 C 25.601562 -18.238281 26.140625 -15.832031 26.140625 -13 Z M 20.5625 -13 C 20.5625 -15.75 19.960938 -17.847656 18.765625 -19.296875 C 17.566406 -20.753906 15.96875 -21.484375 13.96875 -21.484375 C 11.976562 -21.484375 10.378906 -20.753906 9.171875 -19.296875 C 7.972656 -17.847656 7.375 -15.75 7.375 -13 C 7.375 -10.25 7.972656 -8.144531 9.171875 -6.6875 C 10.378906 -5.226562 11.976562 -4.5 13.96875 -4.5 C 15.96875 -4.5 17.566406 -5.226562 18.765625 -6.6875 C 19.960938 -8.144531 20.5625 -10.25 20.5625 -13 Z M 20.5625 -13 "/></g></g></g><g fill="#ffffff" fill-opacity="1"><g transform="translate(380.547663, 101.375257)"><g><path d="M 6.734375 0 L 0.84375 0 L 9.828125 -25.984375 L 16.90625 -25.984375 L 25.859375 0 L 19.96875 0 L 18.046875 -5.921875 L 8.671875 -5.921875 Z M 10.0625 -10.21875 L 16.65625 -10.21875 L 13.46875 -20.046875 L 13.265625 -20.046875 Z M 10.0625 -10.21875 "/></g></g></g><g fill="#ffffff" fill-opacity="1"><g transform="translate(407.268435, 101.375257)"><g><path d="M 25.1875 -16.890625 L 19.625 -16.890625 C 19.414062 -18.316406 18.804688 -19.4375 17.796875 -20.25 C 16.796875 -21.070312 15.539062 -21.484375 14.03125 -21.484375 C 12.019531 -21.484375 10.40625 -20.742188 9.1875 -19.265625 C 7.976562 -17.796875 7.375 -15.707031 7.375 -13 C 7.375 -10.21875 7.984375 -8.101562 9.203125 -6.65625 C 10.429688 -5.21875 12.03125 -4.5 14 -4.5 C 15.457031 -4.5 16.691406 -4.878906 17.703125 -5.640625 C 18.722656 -6.410156 19.363281 -7.492188 19.625 -8.890625 L 25.1875 -8.859375 C 24.988281 -7.265625 24.421875 -5.765625 23.484375 -4.359375 C 22.546875 -2.960938 21.269531 -1.828125 19.65625 -0.953125 C 18.050781 -0.078125 16.132812 0.359375 13.90625 0.359375 C 11.59375 0.359375 9.523438 -0.164062 7.703125 -1.21875 C 5.878906 -2.269531 4.4375 -3.785156 3.375 -5.765625 C 2.320312 -7.753906 1.796875 -10.164062 1.796875 -13 C 1.796875 -15.832031 2.328125 -18.238281 3.390625 -20.21875 C 4.460938 -22.207031 5.910156 -23.722656 7.734375 -24.765625 C 9.566406 -25.816406 11.625 -26.34375 13.90625 -26.34375 C 15.914062 -26.34375 17.722656 -25.972656 19.328125 -25.234375 C 20.941406 -24.492188 22.257812 -23.414062 23.28125 -22 C 24.3125 -20.59375 24.945312 -18.890625 25.1875 -16.890625 Z M 25.1875 -16.890625 "/></g></g></g><g fill="#ffffff" fill-opacity="1"><g transform="translate(434.141464, 101.375257)"><g><path d="M 2.265625 0 L 2.265625 -25.984375 L 7.75 -25.984375 L 7.75 -15.265625 L 18.90625 -15.265625 L 18.90625 -25.984375 L 24.390625 -25.984375 L 24.390625 0 L 18.90625 0 L 18.90625 -10.734375 L 7.75 -10.734375 L 7.75 0 Z M 2.265625 0 "/></g></g></g><g fill="#08ddb8" fill-opacity="1"><g transform="translate(484.445187, 101.469966)"><g><path d="M 2.171875 0 L 2.171875 -24.9375 L 12.15625 -24.9375 C 14.90625 -24.9375 16.972656 -24.335938 18.359375 -23.140625 C 19.742188 -21.941406 20.4375 -20.410156 20.4375 -18.546875 C 20.4375 -17.078125 20.007812 -15.890625 19.15625 -14.984375 C 18.300781 -14.078125 17.226562 -13.476562 15.9375 -13.1875 L 15.9375 -12.953125 C 16.882812 -12.910156 17.773438 -12.640625 18.609375 -12.140625 C 19.441406 -11.648438 20.113281 -10.960938 20.625 -10.078125 C 21.144531 -9.191406 21.40625 -8.128906 21.40625 -6.890625 C 21.40625 -5.566406 21.078125 -4.382812 20.421875 -3.34375 C 19.773438 -2.3125 18.8125 -1.492188 17.53125 -0.890625 C 16.257812 -0.296875 14.691406 0 12.828125 0 Z M 7.4375 -4.3125 L 11.734375 -4.3125 C 13.210938 -4.3125 14.285156 -4.59375 14.953125 -5.15625 C 15.628906 -5.726562 15.96875 -6.484375 15.96875 -7.421875 C 15.96875 -8.453125 15.597656 -9.296875 14.859375 -9.953125 C 14.128906 -10.609375 13.128906 -10.9375 11.859375 -10.9375 L 7.4375 -10.9375 Z M 7.4375 -14.5 L 11.34375 -14.5 C 12.425781 -14.5 13.320312 -14.78125 14.03125 -15.34375 C 14.75 -15.914062 15.109375 -16.691406 15.109375 -17.671875 C 15.109375 -18.578125 14.789062 -19.304688 14.15625 -19.859375 C 13.519531 -20.410156 12.617188 -20.6875 11.453125 -20.6875 L 7.4375 -20.6875 Z M 7.4375 -14.5 "/></g></g></g><g fill="#08ddb8" fill-opacity="1"><g transform="translate(507.114137, 101.469966)"><g><path d="M 25.09375 -12.46875 C 25.09375 -9.75 24.578125 -7.4375 23.546875 -5.53125 C 22.523438 -3.625 21.128906 -2.164062 19.359375 -1.15625 C 17.597656 -0.15625 15.613281 0.34375 13.40625 0.34375 C 11.1875 0.34375 9.195312 -0.15625 7.4375 -1.15625 C 5.675781 -2.164062 4.285156 -3.628906 3.265625 -5.546875 C 2.242188 -7.460938 1.734375 -9.769531 1.734375 -12.46875 C 1.734375 -15.1875 2.242188 -17.5 3.265625 -19.40625 C 4.285156 -21.320312 5.675781 -22.78125 7.4375 -23.78125 C 9.195312 -24.78125 11.1875 -25.28125 13.40625 -25.28125 C 15.613281 -25.28125 17.597656 -24.78125 19.359375 -23.78125 C 21.128906 -22.78125 22.523438 -21.320312 23.546875 -19.40625 C 24.578125 -17.5 25.09375 -15.1875 25.09375 -12.46875 Z M 19.75 -12.46875 C 19.75 -15.113281 19.171875 -17.132812 18.015625 -18.53125 C 16.859375 -19.925781 15.320312 -20.625 13.40625 -20.625 C 11.488281 -20.625 9.953125 -19.925781 8.796875 -18.53125 C 7.648438 -17.132812 7.078125 -15.113281 7.078125 -12.46875 C 7.078125 -9.832031 7.648438 -7.816406 8.796875 -6.421875 C 9.953125 -5.023438 11.488281 -4.328125 13.40625 -4.328125 C 15.320312 -4.328125 16.859375 -5.023438 18.015625 -6.421875 C 19.171875 -7.816406 19.75 -9.832031 19.75 -12.46875 Z M 19.75 -12.46875 "/></g></g></g><g fill="#08ddb8" fill-opacity="1"><g transform="translate(533.936829, 101.469966)"><g><path d="M 1.21875 -20.59375 L 1.21875 -24.9375 L 21.703125 -24.9375 L 21.703125 -20.59375 L 14.0625 -20.59375 L 14.0625 0 L 8.859375 0 L 8.859375 -20.59375 Z M 1.21875 -20.59375 "/></g></g></g><g fill="#08ddb8" fill-opacity="1"><g transform="translate(556.861581, 101.469966)"><g><path d="M 15.703125 -17.765625 C 15.597656 -18.753906 15.175781 -19.519531 14.4375 -20.0625 C 13.695312 -20.601562 12.695312 -20.875 11.4375 -20.875 C 10.144531 -20.875 9.148438 -20.609375 8.453125 -20.078125 C 7.765625 -19.554688 7.421875 -18.894531 7.421875 -18.09375 C 7.410156 -17.195312 7.796875 -16.519531 8.578125 -16.0625 C 9.359375 -15.601562 10.289062 -15.25 11.375 -15 L 13.609375 -14.453125 C 15.054688 -14.128906 16.34375 -13.660156 17.46875 -13.046875 C 18.59375 -12.429688 19.476562 -11.632812 20.125 -10.65625 C 20.769531 -9.6875 21.09375 -8.507812 21.09375 -7.125 C 21.082031 -4.84375 20.226562 -3.023438 18.53125 -1.671875 C 16.832031 -0.316406 14.457031 0.359375 11.40625 0.359375 C 8.382812 0.359375 5.972656 -0.328125 4.171875 -1.703125 C 2.367188 -3.085938 1.429688 -5.128906 1.359375 -7.828125 L 6.46875 -7.828125 C 6.550781 -6.578125 7.039062 -5.632812 7.9375 -5 C 8.84375 -4.375 9.976562 -4.0625 11.34375 -4.0625 C 12.6875 -4.0625 13.757812 -4.34375 14.5625 -4.90625 C 15.363281 -5.476562 15.765625 -6.222656 15.765625 -7.140625 C 15.765625 -7.984375 15.394531 -8.628906 14.65625 -9.078125 C 13.925781 -9.535156 12.882812 -9.925781 11.53125 -10.25 L 8.8125 -10.9375 C 6.707031 -11.4375 5.046875 -12.234375 3.828125 -13.328125 C 2.617188 -14.429688 2.015625 -15.898438 2.015625 -17.734375 C 2.015625 -19.242188 2.421875 -20.5625 3.234375 -21.6875 C 4.046875 -22.820312 5.164062 -23.703125 6.59375 -24.328125 C 8.03125 -24.960938 9.65625 -25.28125 11.46875 -25.28125 C 13.320312 -25.28125 14.941406 -24.960938 16.328125 -24.328125 C 17.710938 -23.703125 18.789062 -22.820312 19.5625 -21.6875 C 20.332031 -20.5625 20.726562 -19.253906 20.75 -17.765625 Z M 15.703125 -17.765625 "/></g></g></g></svg>